<?xml version="1.0" encoding="UTF-8"?>
<!DOCTYPE svg PUBLIC "-//W3C//DTD SVG 1.1//EN" "http://www.w3.org/Graphics/SVG/1.1/DTD/svg11.dtd">
<!-- Creator: CorelDRAW 2018 (64 Bit Versión de evaluación) -->
<svg xmlns="http://www.w3.org/2000/svg" xml:space="preserve" width="1604px" height="367px" version="1.1" style="shape-rendering:geometricPrecision; text-rendering:geometricPrecision; image-rendering:optimizeQuality; fill-rule:evenodd; clip-rule:evenodd"
viewBox="0 0 1604 366.6"
 xmlns:xlink="http://www.w3.org/1999/xlink">
 <defs>
  <style type="text/css">
   <![CDATA[
    .fil0 {fill:black;fill-rule:nonzero}
   ]]>
  </style>
 </defs>
 <g id="Capa_x0020_1">
  <metadata id="CorelCorpID_0Corel-Layer"/>
  <path class="fil0" d="M476.42 213c0,18.2 -14.69,32.9 -32.89,32.9 -13.34,0 -24.74,-7.9 -29.92,-19.25l-63.59 0 0 -0.05 -132.73 0c-8.68,-11.92 -22.59,-19.25 -37.65,-19.25 -25.68,0 -46.55,20.87 -46.55,46.5 0,25.73 20.87,46.59 46.55,46.59 15.06,0 28.97,-7.37 37.65,-19.3l43.41 0 -73.69 85.46 -67.93 0c-65.74,0 -119.08,-53.4 -119.08,-119.14 0,-65.78 53.34,-119.13 119.08,-119.13 4.08,0 8.05,0.22 12.03,0.63 6.32,-72.27 66.94,-128.96 140.84,-128.96 18.98,0 37.07,3.82 53.65,10.67l0 -0.06c53.66,17.99 86.5,85.77 86.5,85.77l2.19 4.71 -84.25 98.32 83.57 0c5.18,-11.41 16.58,-19.35 29.92,-19.35 18.2,0 32.89,14.8 32.89,32.94z"/>
  <path class="fil0" d="M641.42 278.84c0,48.43 -39.33,87.76 -87.76,87.76l-346.15 0 72.85 -85.46 5.81 -6.85 5.8 -6.79 -82.42 0c-5.18,11.34 -16.63,19.29 -29.91,19.29 -18.2,0 -32.9,-14.74 -32.9,-32.94 0,-18.15 14.7,-32.9 32.9,-32.9 13.28,0 24.73,7.95 29.91,19.3l63.59 0 0 0.05 132.73 0c8.68,11.87 22.59,19.25 37.66,19.25 25.67,0 46.54,-20.92 46.54,-46.55 0,-25.67 -20.87,-46.54 -46.54,-46.54 -15.01,0 -29.01,7.15 -37.66,19.3 -0.65,1.1 -1.17,2.19 -1.17,2.19l-44.85 0 1.78 -2.19 5.07 -5.91 72.17 -84.67c0,0 10.56,-0.37 11.77,-0.37 55.33,0 100.72,42.47 105.43,96.54 1.72,-0.1 3.45,-0.26 5.18,-0.26 48.48,0 80.17,39.27 80.17,87.75z"/>
  <path class="fil0" d="M898.42 237.97c0,2.01 -0.38,3.88 -1.14,5.61 -0.75,1.72 -1.76,3.22 -3.01,4.47 -1.26,1.26 -2.75,2.25 -4.48,2.97 -1.72,0.72 -3.55,1.07 -5.49,1.07 -1.73,0 -3.47,-0.32 -5.23,-0.97 -1.76,-0.64 -3.33,-1.68 -4.69,-3.12l-102.4 -106.93 0 108.87 -28.03 0 0 -142.61c0,-2.87 0.82,-5.48 2.43,-7.81 1.62,-2.33 3.68,-4.08 6.2,-5.23 2.66,-1.07 5.39,-1.35 8.19,-0.81 2.8,0.54 5.21,1.85 7.22,3.94l102.4 106.82 0 -108.87 28.03 0 0 142.6z"/>
  <path class="fil0" d="M1058.05 186.77l-88.49 0 0 -28.24 88.49 0 0 28.24zm12.61 63.17l-101.1 0c-3.88,0 -8.12,-0.68 -12.72,-2.05 -4.6,-1.36 -8.86,-3.61 -12.78,-6.74 -3.91,-3.12 -7.18,-7.18 -9.8,-12.18 -2.63,-4.99 -3.94,-11.11 -3.94,-18.37l0 -101.11c0,-1.94 0.36,-3.77 1.08,-5.5 0.72,-1.72 1.7,-3.23 2.97,-4.52 1.25,-1.3 2.74,-2.3 4.46,-3.02 1.73,-0.72 3.6,-1.08 5.61,-1.08l126.22 0 0 28.03 -112.31 0 0 87.2c0,3.66 0.97,6.46 2.91,8.4 1.93,1.95 4.78,2.91 8.51,2.91l100.89 0 0 28.03z"/>
  <polygon class="fil0" points="1168.32,150.56 1215.53,95.37 1253.79,95.37 1187.29,172.87 1253.36,249.94 1215.31,249.94 1168.32,195.18 1121.54,249.94 1083.38,249.94 1149.35,172.87 1083.16,95.37 1121.1,95.37 "/>
  <path class="fil0" d="M1422.91 235.82c0,2.01 -0.36,3.88 -1.07,5.6 -0.72,1.73 -1.73,3.22 -3.02,4.48 -1.3,1.26 -2.8,2.24 -4.53,2.96 -1.72,0.72 -3.56,1.08 -5.5,1.08l-63.16 0c-5.96,0 -12,-0.65 -18.11,-1.94 -6.11,-1.3 -12.01,-3.29 -17.73,-5.98 -5.71,-2.7 -11.09,-6.13 -16.11,-10.3 -5.03,-4.17 -9.44,-9.11 -13.21,-14.82 -3.77,-5.71 -6.74,-12.25 -8.89,-19.62 -2.15,-7.36 -3.23,-15.57 -3.23,-24.63l0 -77.28 28.02 0 0 77.28c0,7.91 1.09,14.59 3.29,20.05 2.19,5.47 4.97,10.03 8.35,13.69 3.38,3.67 7.08,6.54 11.1,8.63 4.03,2.08 7.85,3.62 11.48,4.63 3.63,1.01 6.83,1.64 9.6,1.89 2.76,0.25 4.58,0.37 5.44,0.37l49.26 0 0 -126.54 28.02 0 0 140.45z"/>
  <path class="fil0" d="M1604 204.45c0,5.54 -0.7,10.51 -2.11,14.93 -1.4,4.42 -3.25,8.32 -5.54,11.69 -2.31,3.38 -5,6.26 -8.09,8.63 -3.09,2.37 -6.29,4.31 -9.59,5.82 -3.31,1.51 -6.67,2.62 -10.08,3.34 -3.42,0.72 -6.63,1.08 -9.65,1.08l-108.11 0 0 -28.03 108.11 0c5.39,0 9.58,-1.58 12.56,-4.74 2.98,-3.16 4.47,-7.4 4.47,-12.72 0,-2.59 -0.39,-4.96 -1.18,-7.11 -0.79,-2.16 -1.93,-4.02 -3.4,-5.61 -1.47,-1.58 -3.27,-2.8 -5.39,-3.66 -2.12,-0.86 -4.47,-1.3 -7.06,-1.3l-64.45 0c-4.53,0 -9.42,-0.8 -14.66,-2.42 -5.25,-1.62 -10.12,-4.22 -14.61,-7.82 -4.49,-3.59 -8.23,-8.29 -11.21,-14.12 -2.98,-5.82 -4.48,-12.93 -4.48,-21.34 0,-8.4 1.5,-15.5 4.48,-21.28 2.98,-5.79 6.72,-10.5 11.21,-14.13 4.49,-3.62 9.36,-6.25 14.61,-7.86 5.24,-1.62 10.13,-2.43 14.66,-2.43l95.39 0 0 28.03 -95.39 0c-5.32,0 -9.47,1.61 -12.46,4.85 -2.98,3.23 -4.47,7.51 -4.47,12.82 0,5.39 1.49,9.65 4.47,12.78 2.99,3.12 7.14,4.68 12.46,4.68l64.45 0 0.22 0c3.02,0.08 6.21,0.49 9.59,1.25 3.38,0.75 6.74,1.92 10.08,3.49 3.34,1.59 6.52,3.58 9.54,5.99 3.01,2.41 5.69,5.3 8.03,8.68 2.33,3.38 4.18,7.25 5.55,11.64 1.37,4.38 2.05,9.34 2.05,14.87z"/>
  <path class="fil0" d="M815.98 315.18c0,-3.11 -0.5,-5.95 -1.5,-8.53 -1,-2.58 -2.42,-4.78 -4.27,-6.6 -1.84,-1.82 -4.04,-3.24 -6.6,-4.24 -2.56,-1 -5.39,-1.5 -8.5,-1.5l-35.19 0 0 56.12 35.19 0c3.11,0 5.94,-0.5 8.5,-1.5 2.56,-1.01 4.76,-2.42 6.6,-4.24 1.85,-1.82 3.27,-4.01 4.27,-6.57 1,-2.56 1.5,-5.42 1.5,-8.57l0 -14.37zm15.97 14.37c0,5.37 -0.93,10.3 -2.8,14.8 -1.86,4.5 -4.43,8.38 -7.7,11.64 -3.28,3.25 -7.17,5.8 -11.67,7.64 -4.5,1.84 -9.39,2.77 -14.67,2.77l-43.11 0c-1.14,0 -2.21,-0.21 -3.19,-0.62 -0.99,-0.41 -1.84,-0.97 -2.55,-1.69 -0.72,-0.71 -1.28,-1.56 -1.69,-2.54 -0.41,-0.99 -0.61,-2.05 -0.61,-3.2l0 -71.96c0,-1.11 0.2,-2.15 0.61,-3.14 0.41,-0.98 0.97,-1.84 1.69,-2.58 0.71,-0.73 1.56,-1.31 2.55,-1.71 0.98,-0.42 2.05,-0.62 3.19,-0.62l43.11 0c5.28,0 10.17,0.92 14.67,2.77 4.5,1.84 8.39,4.39 11.67,7.64 3.27,3.25 5.84,7.14 7.7,11.67 1.87,4.52 2.8,9.44 2.8,14.76l0 14.37z"/>
  <polygon class="fil0" points="863.69,366.4 847.72,366.4 847.72,278.34 863.69,278.34 "/>
  <path class="fil0" d="M969.25 358.35c0,1.15 -0.21,2.21 -0.62,3.19 -0.41,0.98 -0.97,1.83 -1.69,2.55 -0.71,0.72 -1.56,1.28 -2.54,1.69 -0.98,0.41 -2.05,0.61 -3.2,0.61l-57.59 0c-1.48,0 -3.06,-0.17 -4.76,-0.52 -1.7,-0.35 -3.38,-0.89 -5.04,-1.63 -1.65,-0.73 -3.24,-1.68 -4.76,-2.85 -1.51,-1.17 -2.85,-2.58 -4.02,-4.24 -1.16,-1.66 -2.1,-3.58 -2.79,-5.77 -0.7,-2.19 -1.04,-4.65 -1.04,-7.4l0 -43.23c0,-1.47 0.17,-3.05 0.52,-4.75 0.34,-1.7 0.89,-3.38 1.63,-5.04 0.73,-1.66 1.69,-3.25 2.88,-4.76 1.18,-1.51 2.61,-2.86 4.27,-4.02 1.66,-1.17 3.57,-2.1 5.74,-2.8 2.17,-0.69 4.62,-1.04 7.37,-1.04l64.9 0 0 15.96 -64.9 0c-2.09,0 -3.69,0.56 -4.79,1.66 -1.11,1.11 -1.66,2.75 -1.66,4.92l0 43.1c0,2.05 0.56,3.64 1.69,4.76 1.13,1.13 2.71,1.69 4.76,1.69l49.67 0 0 -20.02 -42.49 0 0 -16.09 50.41 0c1.15,0 2.22,0.22 3.2,0.65 0.98,0.43 1.83,1.01 2.54,1.75 0.72,0.74 1.28,1.58 1.69,2.54 0.41,0.97 0.62,2 0.62,3.11l0 35.98z"/>
  <polygon class="fil0" points="1001.98,366.4 986.01,366.4 986.01,278.34 1001.98,278.34 "/>
  <polygon class="fil0" points="1100.22,294.31 1065.04,294.31 1065.04,366.4 1049.07,366.4 1049.07,294.31 1013.83,294.31 1013.83,278.34 1100.22,278.34 "/>
  <path class="fil0" d="M1123.19 328.82l56.12 0 0 -34.52 -28.06 0c-0.49,0 -1.53,0.08 -3.1,0.22 -1.58,0.15 -3.4,0.5 -5.47,1.08 -2.06,0.57 -4.24,1.45 -6.54,2.64 -2.29,1.18 -4.4,2.82 -6.32,4.91 -1.92,2.08 -3.51,4.7 -4.76,7.83 -1.25,3.13 -1.87,6.93 -1.87,11.39l0 6.45zm72.09 37.57l-15.97 0 0 -21.61 -56.12 0 0 21.61 -15.97 0 0 -44.02c0,-6.43 1.11,-12.34 3.32,-17.75 2.21,-5.4 5.28,-10.05 9.21,-13.94 3.93,-3.89 8.57,-6.91 13.94,-9.08 5.36,-2.17 11.21,-3.26 17.56,-3.26l35.98 0c1.11,0 2.15,0.21 3.13,0.61 0.99,0.41 1.84,0.99 2.58,1.72 0.74,0.74 1.31,1.6 1.72,2.58 0.41,0.99 0.62,2.03 0.62,3.14l0 80z"/>
  <path class="fil0" d="M1294.69 366.39l-72.83 0c-1.14,0 -2.2,-0.2 -3.19,-0.61 -0.98,-0.41 -1.83,-0.97 -2.55,-1.69 -0.71,-0.72 -1.28,-1.57 -1.69,-2.54 -0.41,-0.99 -0.61,-2.05 -0.61,-3.2l0 -80.01 15.97 0 0 72.09 64.9 0 0 15.96z"/>
 </g>
</svg>
